# Blender 4.3.2
# www.blender.org
mtllib arrow.mtl
o Plane
v -0.412775 0.000000 -2.753161
v 0.412775 0.000000 -2.753161
v 0.001338 0.000000 -3.204796
v -0.001338 0.000000 -3.204796
v -0.412775 0.080471 -2.753161
v 0.412775 0.080471 -2.753161
v 0.001338 0.080471 -3.204796
v -0.001338 0.080471 -3.204796
vn -0.0000 -1.0000 -0.0000
vn -0.0000 1.0000 -0.0000
vn 0.7371 -0.0000 -0.6758
vn -0.7371 -0.0000 -0.6758
vn -0.0000 -0.0000 1.0000
vt 0.000000 0.000000
vt 0.000000 1.000000
vt 1.000000 1.000000
vt 1.000000 0.000000
s 0
f 1/1/1 3/2/1 4/3/1 2/4/1
f 5/1/2 6/4/2 8/3/2 7/2/2
f 2/4/3 4/3/3 8/3/3 6/4/3
f 3/2/4 1/1/4 5/1/4 7/2/4
f 4/3/5 3/2/5 7/2/5 8/3/5
f 1/1/5 2/4/5 6/4/5 5/1/5
o Plane.001
v -0.170867 0.000000 -2.069878
v 0.170867 0.000000 -2.069878
v -0.170867 0.000000 -2.661620
v 0.170867 0.000000 -2.661620
v -0.170867 0.080471 -2.069878
v 0.170867 0.080471 -2.069878
v -0.170867 0.080471 -2.661620
v 0.170867 0.080471 -2.661620
vn -0.0000 -1.0000 -0.0000
vn -0.0000 1.0000 -0.0000
vn -0.0000 -0.0000 1.0000
vn 1.0000 -0.0000 -0.0000
vn -1.0000 -0.0000 -0.0000
vn -0.0000 -0.0000 -1.0000
vt 0.000000 0.000000
vt 0.000000 1.000000
vt 1.000000 1.000000
vt 1.000000 0.000000
s 0
f 9/5/6 11/6/6 12/7/6 10/8/6
f 13/5/7 14/8/7 16/7/7 15/6/7
f 9/5/8 10/8/8 14/8/8 13/5/8
f 10/8/9 12/7/9 16/7/9 14/8/9
f 11/6/10 9/5/10 13/5/10 15/6/10
f 12/7/11 11/6/11 15/6/11 16/7/11
o Plane.002
v -0.170867 0.000000 -1.386094
v 0.170867 0.000000 -1.386094
v -0.170867 0.000000 -1.977836
v 0.170867 0.000000 -1.977836
v -0.170867 0.080471 -1.386094
v 0.170867 0.080471 -1.386094
v -0.170867 0.080471 -1.977836
v 0.170867 0.080471 -1.977836
vn -0.0000 -1.0000 -0.0000
vn -0.0000 1.0000 -0.0000
vn 1.0000 -0.0000 -0.0000
vn -1.0000 -0.0000 -0.0000
vn -0.0000 -0.0000 -1.0000
vn -0.0000 -0.0000 1.0000
vt 0.000000 0.000000
vt 0.000000 1.000000
vt 1.000000 1.000000
vt 1.000000 0.000000
s 0
f 17/9/12 19/10/12 20/11/12 18/12/12
f 21/9/13 22/12/13 24/11/13 23/10/13
f 18/12/14 20/11/14 24/11/14 22/12/14
f 19/10/15 17/9/15 21/9/15 23/10/15
f 20/11/16 19/10/16 23/10/16 24/11/16
f 17/9/17 18/12/17 22/12/17 21/9/17
o Plane.003
v -0.170867 0.000000 -0.710036
v 0.170867 0.000000 -0.710036
v -0.170867 0.000000 -1.301778
v 0.170867 0.000000 -1.301778
v -0.170867 0.080471 -0.710036
v 0.170867 0.080471 -0.710036
v -0.170867 0.080471 -1.301778
v 0.170867 0.080471 -1.301778
vn -0.0000 -1.0000 -0.0000
vn -0.0000 1.0000 -0.0000
vn -0.0000 -0.0000 1.0000
vn 1.0000 -0.0000 -0.0000
vn -1.0000 -0.0000 -0.0000
vn -0.0000 -0.0000 -1.0000
vt 0.000000 0.000000
vt 0.000000 1.000000
vt 1.000000 1.000000
vt 1.000000 0.000000
s 0
f 25/13/18 27/14/18 28/15/18 26/16/18
f 29/13/19 30/16/19 32/15/19 31/14/19
f 25/13/20 26/16/20 30/16/20 29/13/20
f 26/16/21 28/15/21 32/15/21 30/16/21
f 27/14/22 25/13/22 29/13/22 31/14/22
f 28/15/23 27/14/23 31/14/23 32/15/23
